<?xml version="1.0" encoding="UTF-8"?><svg id="a" xmlns="http://www.w3.org/2000/svg" viewBox="0 0 566.93 168.87"><defs><style>.b{fill:#fff;}</style></defs><path class="b" d="M75.32,1.4V17.73H17.03V58.11h51.09v16.33H17.03v53.9H0V1.4H75.32Z"/><path class="b" d="M153.98,55.66v72.69h-16.33v-11.94c-2.57,3.4-6.32,6.52-11.24,9.39-4.91,2.87-10.47,4.3-16.68,4.3-6.91,0-13.14-1.49-18.7-4.48-5.56-2.99-9.95-7.34-13.17-13.08-3.22-5.74-4.83-12.58-4.83-20.54s1.67-14.89,5.01-20.81c3.33-5.91,7.84-10.47,13.52-13.69,5.67-3.22,11.97-4.83,18.87-4.83,6.2,0,11.59,1.35,16.15,4.04,4.57,2.7,8.25,6.21,11.06,10.54l1.23-11.59h15.1Zm-24.49,55.92c4.27-3.33,6.99-7.87,8.16-13.61v-14.4c-1.4-5.15-4.33-9.33-8.78-12.55-4.45-3.22-9.54-4.83-15.28-4.83-4.33,0-8.34,1.05-12.03,3.16-3.69,2.11-6.61,5.06-8.78,8.87-2.17,3.8-3.25,8.11-3.25,12.9s1.11,8.96,3.34,12.82c2.22,3.86,5.2,6.94,8.95,9.22,3.74,2.28,7.84,3.43,12.29,3.43,5.97,0,11.09-1.67,15.36-5.01Z"/><path class="b" d="M195.67,62.33c3.45-3.04,7.11-5.38,10.97-7.02,3.86-1.64,7.26-2.51,10.18-2.63l-.7,16.33c-5.27-.23-10.04,.82-14.31,3.16-4.28,2.34-7.61,5.59-10.01,9.74-2.4,4.16-3.6,8.57-3.6,13.25v33.18h-16.33V55.66h14.57l1.23,17.21c1.87-3.98,4.54-7.49,7.99-10.54Z"/><path class="b" d="M337.37,58.64c4.16,3.98,6.35,9.25,6.59,15.8v53.9h-16.33v-47.93c-.35-8.54-4.21-13.05-11.59-13.52-4.21,0-7.99,1.26-11.33,3.77-3.33,2.52-5.94,5.82-7.81,9.92-1.87,4.1-2.87,8.49-2.99,13.17v34.59h-16.5v-47.93c-.35-8.54-4.33-13.05-11.94-13.52-4.1,0-7.81,1.26-11.15,3.77-3.34,2.52-5.94,5.86-7.81,10.01-1.87,4.16-2.81,8.57-2.81,13.25v34.41h-16.33V55.66h14.75l1.23,13.69c2.81-5.27,6.64-9.36,11.5-12.29,4.86-2.92,10.39-4.39,16.59-4.39,5.85,0,10.76,1.38,14.75,4.13,3.98,2.75,6.55,6.53,7.72,11.33,3.04-4.8,6.91-8.57,11.59-11.33,4.68-2.75,9.71-4.13,15.1-4.13,7.02,0,12.61,1.99,16.76,5.97Z"/><path class="b" d="M366.6,32.66c5.85-9.95,13.72-17.88,23.62-23.79C400.1,2.96,410.91,0,422.61,0s22.36,2.96,32.31,8.86c9.95,5.91,17.88,13.85,23.79,23.79,5.91,9.95,8.87,20.72,8.87,32.3s-2.93,22.54-8.78,32.48c-5.85,9.95-13.78,17.82-23.79,23.62-10.01,5.79-20.81,8.69-32.4,8.69s-22.53-2.86-32.48-8.6c-9.95-5.73-17.82-13.54-23.62-23.44-5.79-9.89-8.69-20.81-8.69-32.75s2.93-22.35,8.78-32.3Zm15.1,56.54c4.21,7.37,9.98,13.23,17.29,17.56,7.32,4.33,15.3,6.5,23.97,6.5s16.59-2.13,23.79-6.41c7.2-4.27,12.87-10.12,17.03-17.56,4.16-7.43,6.23-15.54,6.23-24.32s-2.11-16.91-6.32-24.4c-4.21-7.49-9.95-13.4-17.2-17.73-7.26-4.33-15.22-6.5-23.88-6.5s-16.62,2.19-23.88,6.58c-7.26,4.39-12.97,10.33-17.12,17.82-4.16,7.49-6.23,15.63-6.23,24.4s2.11,16.68,6.32,24.06Z"/><path class="b" d="M560.08,58.91c4.45,4.04,6.73,9.28,6.85,15.71v53.73h-16.5v-48.11c-.24-4.09-1.47-7.31-3.69-9.66-2.22-2.34-5.56-3.57-10.01-3.69-6.44,0-11.76,2.57-15.98,7.72-4.21,5.15-6.32,11.71-6.32,19.67v34.06h-16.33V55.66h14.75l1.05,14.05c2.57-5.27,6.44-9.39,11.59-12.38,5.15-2.99,11.06-4.48,17.73-4.48s12.4,2.02,16.85,6.06Z"/><polygon class="b" points="354.86 168.87 342.96 160.32 371.85 121.05 383.74 129.6 354.86 168.87"/><path class="b" d="M366.6,32.66c5.85-9.95,13.72-17.88,23.62-23.79C400.1,2.96,410.91,0,422.61,0s22.36,2.96,32.31,8.86c9.95,5.91,17.88,13.85,23.79,23.79,5.91,9.95,8.87,20.72,8.87,32.3s-2.93,22.54-8.78,32.48c-5.85,9.95-13.78,17.82-23.79,23.62-10.01,5.79-20.81,8.69-32.4,8.69s-22.53-2.86-32.48-8.6c-9.95-5.73-17.82-13.54-23.62-23.44-5.79-9.89-8.69-20.81-8.69-32.75s2.93-22.35,8.78-32.3Zm15.1,56.54c4.21,7.37,9.98,13.23,17.29,17.56,7.32,4.33,15.3,6.5,23.97,6.5s16.59-2.13,23.79-6.41c7.2-4.27,12.87-10.12,17.03-17.56,4.16-7.43,6.23-15.54,6.23-24.32s-2.11-16.91-6.32-24.4c-4.21-7.49-9.95-13.4-17.2-17.73-7.26-4.33-15.22-6.5-23.88-6.5s-16.62,2.19-23.88,6.58c-7.26,4.39-12.97,10.33-17.12,17.82-4.16,7.49-6.23,15.63-6.23,24.4s2.11,16.68,6.32,24.06Z"/></svg>